<?xml version="1.0" standalone="no"?>
<!DOCTYPE svg PUBLIC "-//W3C//DTD SVG 20010904//EN"
 "http://www.w3.org/TR/2001/REC-SVG-20010904/DTD/svg10.dtd">
<svg version="1.0" xmlns="http://www.w3.org/2000/svg"
 width="670.000000pt" height="670.000000pt" viewBox="0 0 670.000000 670.000000"
 preserveAspectRatio="xMidYMid meet">
<metadata>
Created by potrace 1.11, written by Peter Selinger 2001-2013
</metadata>
<g transform="translate(0.000000,670.000000) scale(0.100000,-0.100000)"
fill="#000000" stroke="none">
<path d="M3689 6542 c32 -23 89 -54 266 -146 83 -43 175 -92 205 -109 30 -16
75 -41 100 -54 245 -135 503 -326 678 -503 371 -375 622 -933 716 -1590 81
-564 45 -905 -136 -1280 -97 -201 -198 -342 -357 -500 -273 -271 -616 -452
-1011 -536 -109 -23 -154 -26 -350 -30 -163 -2 -248 1 -310 11 -47 8 -101 17
-120 20 -19 3 -109 21 -199 41 -90 19 -166 32 -169 29 -3 -3 16 -28 44 -56
151 -155 366 -265 624 -320 132 -27 434 -34 575 -13 186 28 360 79 512 150
142 65 327 183 313 197 -3 3 -64 -7 -135 -23 -72 -15 -155 -31 -185 -35 l-55
-7 55 57 c30 31 102 98 160 147 215 186 447 436 571 618 219 319 348 657 397
1039 4 31 7 164 6 296 -1 258 -15 386 -70 615 -132 547 -401 971 -864 1359
-231 194 -574 406 -810 501 -30 12 -66 26 -80 32 -87 35 -343 108 -377 107
-16 0 -15 -2 6 -17z"/>
<path d="M2355 6104 c-382 -55 -711 -157 -1039 -321 -174 -87 -396 -227 -473
-297 -6 -6 -45 -40 -86 -76 -72 -62 -93 -87 -82 -98 2 -3 10 0 17 6 23 19 660
337 783 391 213 93 428 159 680 208 129 25 522 25 650 -1 91 -18 283 -66 365
-91 724 -222 884 -286 1144 -455 600 -391 916 -926 916 -1552 0 -315 -67 -601
-198 -848 -98 -184 -197 -309 -416 -522 -94 -91 -168 -169 -165 -172 10 -10
192 44 301 90 438 185 730 558 839 1074 29 136 37 521 14 665 -22 135 -37 205
-45 205 -7 0 -21 -60 -86 -370 -26 -124 -48 -226 -49 -228 -1 -1 -9 0 -18 4
-10 3 -18 23 -22 52 -79 580 -254 1005 -572 1388 -412 500 -1091 862 -1775
949 -154 19 -546 19 -683 -1z"/>
<path d="M3720 5552 c0 -5 15 -22 33 -38 98 -87 196 -178 194 -180 -2 -2 -25
4 -52 12 -380 117 -765 177 -1135 177 -606 1 -1119 -165 -1574 -510 -273 -207
-559 -526 -771 -860 -153 -241 -262 -528 -316 -833 -33 -186 -33 -606 1 -790
5 -30 11 -66 14 -80 11 -67 38 -184 62 -270 14 -52 31 -112 36 -133 6 -20 14
-37 19 -37 13 0 11 57 -5 163 -28 177 -39 443 -26 635 36 558 170 973 423
1307 175 232 406 412 1012 791 350 219 573 315 865 374 339 69 722 39 1095
-86 108 -35 308 -132 397 -190 172 -113 344 -270 450 -409 142 -187 239 -377
358 -700 68 -184 73 -196 84 -192 13 4 51 103 68 175 19 87 16 347 -6 457 -67
335 -257 636 -546 867 -144 115 -369 241 -574 323 -93 37 -106 40 -106 27z"/>
<path d="M2525 5159 c-199 -30 -367 -81 -550 -167 -77 -36 -142 -66 -143 -68
-2 -1 1 -10 6 -20 8 -14 21 -17 63 -16 l54 2 -25 -21 c-14 -11 -41 -34 -60
-51 -19 -17 -98 -85 -175 -151 -405 -348 -615 -621 -783 -1017 -78 -186 -129
-371 -162 -595 -28 -183 -28 -499 0 -684 46 -308 139 -580 282 -830 26 -46 48
-86 48 -88 0 -7 121 -186 169 -248 109 -145 307 -351 436 -454 38 -31 72 -59
75 -62 3 -3 43 -33 90 -66 193 -137 465 -285 683 -374 144 -58 296 -109 326
-109 25 1 26 1 6 16 -21 17 -198 123 -280 169 -491 273 -708 425 -939 660
-293 297 -473 657 -561 1120 -19 102 -52 364 -59 475 -30 440 -30 441 -1 660
68 509 355 976 790 1286 238 169 491 273 805 330 71 13 148 18 305 17 220 0
248 -4 565 -72 208 -45 234 -50 240 -45 10 10 -179 159 -277 218 -110 66 -250
125 -373 157 -141 36 -408 50 -555 28z"/>
<path d="M6528 4633 c0 -10 -2 -22 -3 -28 -1 -5 -5 -100 -9 -210 -9 -262 -35
-735 -40 -743 -2 -4 -6 -36 -10 -72 -12 -126 -61 -344 -103 -465 -149 -428
-338 -661 -828 -1021 -202 -147 -651 -457 -738 -508 -178 -104 -341 -165 -552
-206 -732 -143 -1494 123 -1950 680 -170 208 -279 430 -380 775 -18 60 -36
110 -42 112 -11 4 -49 -126 -63 -217 -66 -431 157 -927 564 -1254 128 -102
231 -170 361 -236 124 -62 262 -116 273 -106 3 4 1 10 -5 14 -6 4 -42 34 -79
68 -38 34 -108 96 -156 139 -88 78 -103 94 -70 76 73 -39 435 -139 652 -180
297 -56 687 -71 935 -37 391 55 723 173 1047 373 93 57 115 72 218 147 440
324 775 774 940 1266 111 330 146 580 137 980 -6 252 -15 341 -64 583 -16 81
-31 111 -35 70z"/>
<path d="M2195 4403 c-179 -29 -329 -91 -471 -196 -69 -51 -230 -206 -293
-282 -109 -130 -240 -366 -298 -534 -69 -202 -93 -454 -59 -616 27 -127 35
-133 61 -42 49 171 101 329 110 330 6 0 18 -44 27 -98 53 -305 88 -459 140
-609 115 -336 257 -590 463 -830 214 -249 470 -446 790 -608 863 -438 1772
-436 2651 5 360 180 651 390 851 614 36 40 63 77 61 83 -1 5 -104 -58 -228
-141 -616 -413 -952 -573 -1391 -661 -101 -20 -142 -22 -369 -22 -313 1 -499
24 -800 99 -289 73 -476 142 -731 270 -119 60 -149 77 -284 161 -261 163 -501
402 -637 635 -242 414 -324 956 -208 1374 83 298 244 560 612 994 62 73 62 83
3 74z"/>
</g>
</svg>
